<svg xmlns="http://www.w3.org/2000/svg" viewBox="0 0 1500 1500"><path d="M1100 143.77H400L50 750l94.89 164.36L494.75 308.2h353.59c150.74 0 273.32 122.59 273.32 273.33 0 64.13-26.58 138.57-81.41 169.77 53.38 40.17 79.17 104.07 79.17 166.79 0 150.66-122.59 273.25-273.33 273.25H382.46l121.09-209.87h342.53c35.02 0 63.46-28.44 63.46-63.39s-26.8-61.82-60.47-63.31c-.97-.15-272.36 0-272.36 0l121.25-210.01s151.93.15 152.6.07c14.26-.45 27.25-5.6 37.56-14.04 14.48-11.57 23.67-29.34 23.67-49.27 0-35.01-28.45-63.46-63.46-63.46H622.7l-353.36 611.93 130.65 226.24h700l350-606.23-350-606.23z" fill="#ff9f00"/></svg>