<svg width="16" height="16" fill="none" xmlns="http://www.w3.org/2000/svg"><path d="M1.75 2A1.75 1.75 0 000 3.75v8.5A1.75 1.75 0 001.75 14h12.5A1.75 1.75 0 0016 12.25v-8.5A1.75 1.75 0 0014.25 2H1.75z" fill="#217EE7"/><path d="M2.258 5.244a.81.81 0 00-.258.59.81.81 0 00.258.589.91.91 0 00.624.244h8.236a.91.91 0 00.624-.244.81.81 0 00.258-.59.81.81 0 00-.258-.589.91.91 0 00-.624-.244H2.882a.91.91 0 00-.624.244zm5.33 3.089H2.882a.91.91 0 00-.624.244.81.81 0 00-.258.59.81.81 0 00.258.589.91.91 0 00.624.244h4.706a.91.91 0 00.624-.244.81.81 0 00.259-.59.81.81 0 00-.259-.589.91.91 0 00-.624-.244z" fill="#fff"/><path d="M0 3.75C0 2.784.784 2 1.75 2h12.5c.966 0 1.75.784 1.75 1.75v8.5A1.75 1.75 0 0114.25 14H1.75A1.75 1.75 0 010 12.25v-8.5zm1.75-.25a.25.25 0 00-.25.25v8.5c0 .138.112.25.25.25h12.5a.25.25 0 00.25-.25v-8.5a.25.25 0 00-.25-.25H1.75z" fill="#217EE7"/></svg>